<?xml version="1.0" encoding="UTF-8" standalone="no"?>
<!DOCTYPE svg PUBLIC "-//W3C//DTD SVG 1.1//EN"
 "http://www.w3.org/Graphics/SVG/1.1/DTD/svg11.dtd">
<!-- Generated by graphviz version 2.47.1 (20210417.1919)
 -->
<!-- Pages: 1 -->
<svg width="1334pt" height="696pt"
 viewBox="0.00 0.00 1333.89 695.88" xmlns="http://www.w3.org/2000/svg" xmlns:xlink="http://www.w3.org/1999/xlink">
<g id="graph0" class="graph" transform="scale(1 1) rotate(0) translate(4 691.88)">
<polygon fill="white" stroke="transparent" points="-4,4 -4,-691.88 1329.89,-691.88 1329.89,4 -4,4"/>
<!-- &lt;start&gt; -->
<g id="node1" class="node">
<title>&lt;start&gt;</title>
<ellipse fill="none" stroke="black" cx="575.95" cy="-651.48" rx="36.29" ry="36.29"/>
<text text-anchor="middle" x="575.95" y="-647.78" font-family="Times,serif" font-size="14.00">&lt;start&gt;</text>
</g>
<!-- &lt;start&gt;&#45;choice&#45;1 -->
<g id="node2" class="node">
<title>&lt;start&gt;&#45;choice&#45;1</title>
<polygon fill="none" stroke="black" points="575.95,-564.09 477.75,-546.09 575.95,-528.09 674.15,-546.09 575.95,-564.09"/>
<text text-anchor="middle" x="575.95" y="-542.39" font-family="Times,serif" font-size="14.00">&lt;start&gt;&#45;choice&#45;1</text>
</g>
<!-- &lt;start&gt;&#45;&gt;&lt;start&gt;&#45;choice&#45;1 -->
<g id="edge1" class="edge">
<title>&lt;start&gt;&#45;&gt;&lt;start&gt;&#45;choice&#45;1</title>
<path fill="none" stroke="black" d="M575.95,-614.9C575.95,-601.62 575.95,-586.76 575.95,-574.34"/>
<polygon fill="black" stroke="black" points="579.45,-574.16 575.95,-564.16 572.45,-574.16 579.45,-574.16"/>
<text text-anchor="start" x="575.95" y="-585.89" font-family="Times,serif" font-size="14.00">1</text>
</g>
<!-- &lt;letters&gt; -->
<g id="node3" class="node">
<title>&lt;letters&gt;</title>
<ellipse fill="none" stroke="black" cx="575.95" cy="-434.19" rx="42.79" ry="42.79"/>
<text text-anchor="middle" x="575.95" y="-430.49" font-family="Times,serif" font-size="14.00">&lt;letters&gt;</text>
</g>
<!-- &lt;start&gt;&#45;choice&#45;1&#45;&gt;&lt;letters&gt; -->
<g id="edge2" class="edge">
<title>&lt;start&gt;&#45;choice&#45;1&#45;&gt;&lt;letters&gt;</title>
<path fill="none" stroke="black" d="M575.95,-527.91C575.95,-516.93 575.95,-502.03 575.95,-487.4"/>
<polygon fill="black" stroke="black" points="579.45,-487.36 575.95,-477.36 572.45,-487.36 579.45,-487.36"/>
<text text-anchor="start" x="575.95" y="-498.89" font-family="Times,serif" font-size="14.00">1</text>
</g>
<!-- &lt;letters&gt;&#45;choice&#45;1 -->
<g id="node4" class="node">
<title>&lt;letters&gt;&#45;choice&#45;1</title>
<polygon fill="none" stroke="black" points="545.95,-340.29 438.36,-322.29 545.95,-304.29 653.53,-322.29 545.95,-340.29"/>
<text text-anchor="middle" x="545.95" y="-318.59" font-family="Times,serif" font-size="14.00">&lt;letters&gt;&#45;choice&#45;1</text>
</g>
<!-- &lt;letters&gt;&#45;&gt;&lt;letters&gt;&#45;choice&#45;1 -->
<g id="edge3" class="edge">
<title>&lt;letters&gt;&#45;&gt;&lt;letters&gt;&#45;choice&#45;1</title>
<path fill="none" stroke="black" d="M556.52,-395.59C553.5,-388.35 550.77,-380.71 548.95,-373.29 547.16,-366.06 546.24,-358.07 545.79,-350.64"/>
<polygon fill="black" stroke="black" points="549.29,-350.52 545.45,-340.65 542.3,-350.76 549.29,-350.52"/>
<text text-anchor="start" x="548.95" y="-362.09" font-family="Times,serif" font-size="14.00">1</text>
</g>
<!-- &lt;letters&gt;&#45;choice&#45;2 -->
<g id="node5" class="node">
<title>&lt;letters&gt;&#45;choice&#45;2</title>
<polygon fill="none" stroke="black" points="778.95,-340.29 671.36,-322.29 778.95,-304.29 886.53,-322.29 778.95,-340.29"/>
<text text-anchor="middle" x="778.95" y="-318.59" font-family="Times,serif" font-size="14.00">&lt;letters&gt;&#45;choice&#45;2</text>
</g>
<!-- &lt;letters&gt;&#45;&gt;&lt;letters&gt;&#45;choice&#45;2 -->
<g id="edge4" class="edge">
<title>&lt;letters&gt;&#45;&gt;&lt;letters&gt;&#45;choice&#45;2</title>
<path fill="none" stroke="black" d="M613.65,-412.78C651.54,-392.26 709.38,-360.95 745.63,-341.33"/>
<polygon fill="black" stroke="black" points="747.68,-344.2 754.81,-336.36 744.34,-338.04 747.68,-344.2"/>
<text text-anchor="start" x="712.95" y="-362.09" font-family="Times,serif" font-size="14.00">2</text>
</g>
<!-- &lt;letters&gt;&#45;choice&#45;1&#45;&gt;&lt;letters&gt; -->
<g id="edge6" class="edge">
<title>&lt;letters&gt;&#45;choice&#45;1&#45;&gt;&lt;letters&gt;</title>
<path fill="none" stroke="black" d="M550.41,-339.66C553.54,-351.1 557.89,-367.04 562.11,-382.52"/>
<polygon fill="black" stroke="black" points="558.85,-383.85 564.86,-392.58 565.6,-382.01 558.85,-383.85"/>
<text text-anchor="start" x="559.95" y="-362.09" font-family="Times,serif" font-size="14.00">2</text>
</g>
<!-- &lt;letter&gt; -->
<g id="node6" class="node">
<title>&lt;letter&gt;</title>
<ellipse fill="none" stroke="black" cx="661.95" cy="-213.65" rx="39.79" ry="39.79"/>
<text text-anchor="middle" x="661.95" y="-209.95" font-family="Times,serif" font-size="14.00">&lt;letter&gt;</text>
</g>
<!-- &lt;letters&gt;&#45;choice&#45;1&#45;&gt;&lt;letter&gt; -->
<g id="edge5" class="edge">
<title>&lt;letters&gt;&#45;choice&#45;1&#45;&gt;&lt;letter&gt;</title>
<path fill="none" stroke="black" d="M561.59,-306.91C577.96,-291.86 604.24,-267.7 625.8,-247.88"/>
<polygon fill="black" stroke="black" points="628.21,-250.41 633.21,-241.07 623.48,-245.26 628.21,-250.41"/>
<text text-anchor="start" x="597.95" y="-275.09" font-family="Times,serif" font-size="14.00">1</text>
</g>
<!-- &lt;letters&gt;&#45;choice&#45;2&#45;&gt;&lt;letter&gt; -->
<g id="edge7" class="edge">
<title>&lt;letters&gt;&#45;choice&#45;2&#45;&gt;&lt;letter&gt;</title>
<path fill="none" stroke="black" d="M763.17,-306.91C746.65,-291.86 720.15,-267.7 698.4,-247.88"/>
<polygon fill="black" stroke="black" points="700.68,-245.22 690.93,-241.07 695.97,-250.39 700.68,-245.22"/>
<text text-anchor="start" x="736.95" y="-275.09" font-family="Times,serif" font-size="14.00">1</text>
</g>
<!-- &lt;letter&gt;&#45;choice&#45;1 -->
<g id="node7" class="node">
<title>&lt;letter&gt;&#45;choice&#45;1</title>
<polygon fill="none" stroke="black" points="102.95,-123 0.05,-105 102.95,-87 205.84,-105 102.95,-123"/>
<text text-anchor="middle" x="102.95" y="-101.3" font-family="Times,serif" font-size="14.00">&lt;letter&gt;&#45;choice&#45;1</text>
</g>
<!-- &lt;letter&gt;&#45;&gt;&lt;letter&gt;&#45;choice&#45;1 -->
<g id="edge8" class="edge">
<title>&lt;letter&gt;&#45;&gt;&lt;letter&gt;&#45;choice&#45;1</title>
<path fill="none" stroke="black" d="M623.08,-205.23C526.1,-186.73 273.11,-138.46 159.55,-116.8"/>
<polygon fill="black" stroke="black" points="160.14,-113.35 149.66,-114.91 158.83,-120.22 160.14,-113.35"/>
<text text-anchor="start" x="349.95" y="-144.8" font-family="Times,serif" font-size="14.00">1</text>
</g>
<!-- &lt;letter&gt;&#45;choice&#45;2 -->
<g id="node8" class="node">
<title>&lt;letter&gt;&#45;choice&#45;2</title>
<polygon fill="none" stroke="black" points="326.95,-123 224.05,-105 326.95,-87 429.84,-105 326.95,-123"/>
<text text-anchor="middle" x="326.95" y="-101.3" font-family="Times,serif" font-size="14.00">&lt;letter&gt;&#45;choice&#45;2</text>
</g>
<!-- &lt;letter&gt;&#45;&gt;&lt;letter&gt;&#45;choice&#45;2 -->
<g id="edge9" class="edge">
<title>&lt;letter&gt;&#45;&gt;&lt;letter&gt;&#45;choice&#45;2</title>
<path fill="none" stroke="black" d="M624.17,-200.62C561.83,-180.78 437.73,-141.27 371.32,-120.13"/>
<polygon fill="black" stroke="black" points="372.15,-116.72 361.56,-117.02 370.03,-123.39 372.15,-116.72"/>
<text text-anchor="start" x="474.95" y="-144.8" font-family="Times,serif" font-size="14.00">2</text>
</g>
<!-- &lt;letter&gt;&#45;choice&#45;3 -->
<g id="node9" class="node">
<title>&lt;letter&gt;&#45;choice&#45;3</title>
<polygon fill="none" stroke="black" points="550.95,-123 448.05,-105 550.95,-87 653.84,-105 550.95,-123"/>
<text text-anchor="middle" x="550.95" y="-101.3" font-family="Times,serif" font-size="14.00">&lt;letter&gt;&#45;choice&#45;3</text>
</g>
<!-- &lt;letter&gt;&#45;&gt;&lt;letter&gt;&#45;choice&#45;3 -->
<g id="edge10" class="edge">
<title>&lt;letter&gt;&#45;&gt;&lt;letter&gt;&#45;choice&#45;3</title>
<path fill="none" stroke="black" d="M633.65,-185.46C615.04,-167.58 591.02,-144.5 573.67,-127.83"/>
<polygon fill="black" stroke="black" points="575.84,-125.06 566.2,-120.66 570.99,-130.11 575.84,-125.06"/>
<text text-anchor="start" x="599.95" y="-144.8" font-family="Times,serif" font-size="14.00">3</text>
</g>
<!-- &lt;letter&gt;&#45;choice&#45;4 -->
<g id="node10" class="node">
<title>&lt;letter&gt;&#45;choice&#45;4</title>
<polygon fill="none" stroke="black" points="774.95,-123 672.05,-105 774.95,-87 877.84,-105 774.95,-123"/>
<text text-anchor="middle" x="774.95" y="-101.3" font-family="Times,serif" font-size="14.00">&lt;letter&gt;&#45;choice&#45;4</text>
</g>
<!-- &lt;letter&gt;&#45;&gt;&lt;letter&gt;&#45;choice&#45;4 -->
<g id="edge11" class="edge">
<title>&lt;letter&gt;&#45;&gt;&lt;letter&gt;&#45;choice&#45;4</title>
<path fill="none" stroke="black" d="M690.46,-185.74C709.51,-167.76 734.24,-144.42 752.02,-127.64"/>
<polygon fill="black" stroke="black" points="754.78,-129.85 759.65,-120.44 749.97,-124.76 754.78,-129.85"/>
<text text-anchor="start" x="734.95" y="-144.8" font-family="Times,serif" font-size="14.00">4</text>
</g>
<!-- &lt;letter&gt;&#45;choice&#45;5 -->
<g id="node11" class="node">
<title>&lt;letter&gt;&#45;choice&#45;5</title>
<polygon fill="none" stroke="black" points="998.95,-123 896.05,-105 998.95,-87 1101.84,-105 998.95,-123"/>
<text text-anchor="middle" x="998.95" y="-101.3" font-family="Times,serif" font-size="14.00">&lt;letter&gt;&#45;choice&#45;5</text>
</g>
<!-- &lt;letter&gt;&#45;&gt;&lt;letter&gt;&#45;choice&#45;5 -->
<g id="edge12" class="edge">
<title>&lt;letter&gt;&#45;&gt;&lt;letter&gt;&#45;choice&#45;5</title>
<path fill="none" stroke="black" d="M699.62,-200.72C762.27,-180.9 887.59,-141.24 954.47,-120.07"/>
<polygon fill="black" stroke="black" points="955.82,-123.32 964.29,-116.97 953.7,-116.65 955.82,-123.32"/>
<text text-anchor="start" x="879.95" y="-144.8" font-family="Times,serif" font-size="14.00">5</text>
</g>
<!-- &lt;letter&gt;&#45;choice&#45;6 -->
<g id="node12" class="node">
<title>&lt;letter&gt;&#45;choice&#45;6</title>
<polygon fill="none" stroke="black" points="1222.95,-123 1120.05,-105 1222.95,-87 1325.84,-105 1222.95,-123"/>
<text text-anchor="middle" x="1222.95" y="-101.3" font-family="Times,serif" font-size="14.00">&lt;letter&gt;&#45;choice&#45;6</text>
</g>
<!-- &lt;letter&gt;&#45;&gt;&lt;letter&gt;&#45;choice&#45;6 -->
<g id="edge13" class="edge">
<title>&lt;letter&gt;&#45;&gt;&lt;letter&gt;&#45;choice&#45;6</title>
<path fill="none" stroke="black" d="M700.95,-205.23C798.27,-186.73 1052.18,-138.46 1166.14,-116.8"/>
<polygon fill="black" stroke="black" points="1166.89,-120.22 1176.06,-114.91 1165.59,-113.34 1166.89,-120.22"/>
<text text-anchor="start" x="1024.95" y="-144.8" font-family="Times,serif" font-size="14.00">6</text>
</g>
<!-- a -->
<g id="node13" class="node">
<title>a</title>
<polygon fill="none" stroke="black" points="129.95,-36 75.95,-36 75.95,0 129.95,0 129.95,-36"/>
<text text-anchor="middle" x="102.95" y="-14.3" font-family="Times,serif" font-size="14.00">a</text>
</g>
<!-- &lt;letter&gt;&#45;choice&#45;1&#45;&gt;a -->
<g id="edge14" class="edge">
<title>&lt;letter&gt;&#45;choice&#45;1&#45;&gt;a</title>
<path fill="none" stroke="black" d="M102.95,-86.8C102.95,-75.16 102.95,-59.55 102.95,-46.24"/>
<polygon fill="black" stroke="black" points="106.45,-46.18 102.95,-36.18 99.45,-46.18 106.45,-46.18"/>
<text text-anchor="start" x="102.95" y="-57.8" font-family="Times,serif" font-size="14.00">1</text>
</g>
<!-- b -->
<g id="node14" class="node">
<title>b</title>
<polygon fill="none" stroke="black" points="353.95,-36 299.95,-36 299.95,0 353.95,0 353.95,-36"/>
<text text-anchor="middle" x="326.95" y="-14.3" font-family="Times,serif" font-size="14.00">b</text>
</g>
<!-- &lt;letter&gt;&#45;choice&#45;2&#45;&gt;b -->
<g id="edge15" class="edge">
<title>&lt;letter&gt;&#45;choice&#45;2&#45;&gt;b</title>
<path fill="none" stroke="black" d="M326.95,-86.8C326.95,-75.16 326.95,-59.55 326.95,-46.24"/>
<polygon fill="black" stroke="black" points="330.45,-46.18 326.95,-36.18 323.45,-46.18 330.45,-46.18"/>
<text text-anchor="start" x="326.95" y="-57.8" font-family="Times,serif" font-size="14.00">1</text>
</g>
<!-- c -->
<g id="node15" class="node">
<title>c</title>
<polygon fill="none" stroke="black" points="577.95,-36 523.95,-36 523.95,0 577.95,0 577.95,-36"/>
<text text-anchor="middle" x="550.95" y="-14.3" font-family="Times,serif" font-size="14.00">c</text>
</g>
<!-- &lt;letter&gt;&#45;choice&#45;3&#45;&gt;c -->
<g id="edge16" class="edge">
<title>&lt;letter&gt;&#45;choice&#45;3&#45;&gt;c</title>
<path fill="none" stroke="black" d="M550.95,-86.8C550.95,-75.16 550.95,-59.55 550.95,-46.24"/>
<polygon fill="black" stroke="black" points="554.45,-46.18 550.95,-36.18 547.45,-46.18 554.45,-46.18"/>
<text text-anchor="start" x="550.95" y="-57.8" font-family="Times,serif" font-size="14.00">1</text>
</g>
<!-- 1 -->
<g id="node16" class="node">
<title>1</title>
<polygon fill="none" stroke="black" points="801.95,-36 747.95,-36 747.95,0 801.95,0 801.95,-36"/>
<text text-anchor="middle" x="774.95" y="-14.3" font-family="Times,serif" font-size="14.00">1</text>
</g>
<!-- &lt;letter&gt;&#45;choice&#45;4&#45;&gt;1 -->
<g id="edge17" class="edge">
<title>&lt;letter&gt;&#45;choice&#45;4&#45;&gt;1</title>
<path fill="none" stroke="black" d="M774.95,-86.8C774.95,-75.16 774.95,-59.55 774.95,-46.24"/>
<polygon fill="black" stroke="black" points="778.45,-46.18 774.95,-36.18 771.45,-46.18 778.45,-46.18"/>
<text text-anchor="start" x="774.95" y="-57.8" font-family="Times,serif" font-size="14.00">1</text>
</g>
<!-- 2 -->
<g id="node17" class="node">
<title>2</title>
<polygon fill="none" stroke="black" points="1025.95,-36 971.95,-36 971.95,0 1025.95,0 1025.95,-36"/>
<text text-anchor="middle" x="998.95" y="-14.3" font-family="Times,serif" font-size="14.00">2</text>
</g>
<!-- &lt;letter&gt;&#45;choice&#45;5&#45;&gt;2 -->
<g id="edge18" class="edge">
<title>&lt;letter&gt;&#45;choice&#45;5&#45;&gt;2</title>
<path fill="none" stroke="black" d="M998.95,-86.8C998.95,-75.16 998.95,-59.55 998.95,-46.24"/>
<polygon fill="black" stroke="black" points="1002.45,-46.18 998.95,-36.18 995.45,-46.18 1002.45,-46.18"/>
<text text-anchor="start" x="998.95" y="-57.8" font-family="Times,serif" font-size="14.00">1</text>
</g>
<!-- 3 -->
<g id="node18" class="node">
<title>3</title>
<polygon fill="none" stroke="black" points="1249.95,-36 1195.95,-36 1195.95,0 1249.95,0 1249.95,-36"/>
<text text-anchor="middle" x="1222.95" y="-14.3" font-family="Times,serif" font-size="14.00">3</text>
</g>
<!-- &lt;letter&gt;&#45;choice&#45;6&#45;&gt;3 -->
<g id="edge19" class="edge">
<title>&lt;letter&gt;&#45;choice&#45;6&#45;&gt;3</title>
<path fill="none" stroke="black" d="M1222.95,-86.8C1222.95,-75.16 1222.95,-59.55 1222.95,-46.24"/>
<polygon fill="black" stroke="black" points="1226.45,-46.18 1222.95,-36.18 1219.45,-46.18 1226.45,-46.18"/>
<text text-anchor="start" x="1222.95" y="-57.8" font-family="Times,serif" font-size="14.00">1</text>
</g>
</g>
</svg>
