<?xml version="1.0" encoding="UTF-8" standalone="no"?>
<!DOCTYPE svg PUBLIC "-//W3C//DTD SVG 1.1//EN"
 "http://www.w3.org/Graphics/SVG/1.1/DTD/svg11.dtd">
<!-- Generated by graphviz version 2.49.1 (20210923.0004)
 -->
<!-- Pages: 1 -->
<svg width="1358pt" height="696pt"
 viewBox="0.00 0.00 1357.57 695.88" xmlns="http://www.w3.org/2000/svg" xmlns:xlink="http://www.w3.org/1999/xlink">
<g id="graph0" class="graph" transform="scale(1 1) rotate(0) translate(4 691.88)">
<polygon fill="white" stroke="transparent" points="-4,4 -4,-691.88 1353.57,-691.88 1353.57,4 -4,4"/>
<!-- &lt;start&gt; -->
<g id="node1" class="node">
<title>&lt;start&gt;</title>
<ellipse fill="none" stroke="black" cx="585.78" cy="-651.48" rx="36.29" ry="36.29"/>
<text text-anchor="middle" x="585.78" y="-647.78" font-family="Times,serif" font-size="14.00">&lt;start&gt;</text>
</g>
<!-- &lt;start&gt;&#45;choice&#45;1 -->
<g id="node2" class="node">
<title>&lt;start&gt;&#45;choice&#45;1</title>
<polygon fill="none" stroke="black" points="585.78,-564.09 485.41,-546.09 585.78,-528.09 686.16,-546.09 585.78,-564.09"/>
<text text-anchor="middle" x="585.78" y="-542.39" font-family="Times,serif" font-size="14.00">&lt;start&gt;&#45;choice&#45;1</text>
</g>
<!-- &lt;start&gt;&#45;&gt;&lt;start&gt;&#45;choice&#45;1 -->
<g id="edge1" class="edge">
<title>&lt;start&gt;&#45;&gt;&lt;start&gt;&#45;choice&#45;1</title>
<path fill="none" stroke="black" d="M585.78,-614.9C585.78,-601.62 585.78,-586.76 585.78,-574.34"/>
<polygon fill="black" stroke="black" points="589.28,-574.16 585.78,-564.16 582.28,-574.16 589.28,-574.16"/>
<text text-anchor="start" x="585.78" y="-585.89" font-family="Times,serif" font-size="14.00">1</text>
</g>
<!-- &lt;letters&gt; -->
<g id="node3" class="node">
<title>&lt;letters&gt;</title>
<ellipse fill="none" stroke="black" cx="585.78" cy="-434.19" rx="42.79" ry="42.79"/>
<text text-anchor="middle" x="585.78" y="-430.49" font-family="Times,serif" font-size="14.00">&lt;letters&gt;</text>
</g>
<!-- &lt;start&gt;&#45;choice&#45;1&#45;&gt;&lt;letters&gt; -->
<g id="edge2" class="edge">
<title>&lt;start&gt;&#45;choice&#45;1&#45;&gt;&lt;letters&gt;</title>
<path fill="none" stroke="black" d="M585.78,-527.91C585.78,-516.93 585.78,-502.03 585.78,-487.4"/>
<polygon fill="black" stroke="black" points="589.28,-487.36 585.78,-477.36 582.28,-487.36 589.28,-487.36"/>
<text text-anchor="start" x="585.78" y="-498.89" font-family="Times,serif" font-size="14.00">1</text>
</g>
<!-- &lt;letters&gt;&#45;choice&#45;1 -->
<g id="node4" class="node">
<title>&lt;letters&gt;&#45;choice&#45;1</title>
<polygon fill="none" stroke="black" points="555.78,-340.29 446.52,-322.29 555.78,-304.29 665.04,-322.29 555.78,-340.29"/>
<text text-anchor="middle" x="555.78" y="-318.59" font-family="Times,serif" font-size="14.00">&lt;letters&gt;&#45;choice&#45;1</text>
</g>
<!-- &lt;letters&gt;&#45;&gt;&lt;letters&gt;&#45;choice&#45;1 -->
<g id="edge3" class="edge">
<title>&lt;letters&gt;&#45;&gt;&lt;letters&gt;&#45;choice&#45;1</title>
<path fill="none" stroke="black" d="M566.36,-395.59C563.33,-388.35 560.61,-380.71 558.78,-373.29 557,-366.06 556.08,-358.07 555.63,-350.64"/>
<polygon fill="black" stroke="black" points="559.13,-350.52 555.29,-340.65 552.14,-350.76 559.13,-350.52"/>
<text text-anchor="start" x="558.78" y="-362.09" font-family="Times,serif" font-size="14.00">1</text>
</g>
<!-- &lt;letters&gt;&#45;choice&#45;2 -->
<g id="node5" class="node">
<title>&lt;letters&gt;&#45;choice&#45;2</title>
<polygon fill="none" stroke="black" points="792.78,-340.29 683.52,-322.29 792.78,-304.29 902.04,-322.29 792.78,-340.29"/>
<text text-anchor="middle" x="792.78" y="-318.59" font-family="Times,serif" font-size="14.00">&lt;letters&gt;&#45;choice&#45;2</text>
</g>
<!-- &lt;letters&gt;&#45;&gt;&lt;letters&gt;&#45;choice&#45;2 -->
<g id="edge4" class="edge">
<title>&lt;letters&gt;&#45;&gt;&lt;letters&gt;&#45;choice&#45;2</title>
<path fill="none" stroke="black" d="M623.27,-413.29C662.04,-392.7 722.03,-360.86 759.27,-341.08"/>
<polygon fill="black" stroke="black" points="761.03,-344.11 768.22,-336.33 757.75,-337.93 761.03,-344.11"/>
<text text-anchor="start" x="725.78" y="-362.09" font-family="Times,serif" font-size="14.00">2</text>
</g>
<!-- &lt;letters&gt;&#45;choice&#45;1&#45;&gt;&lt;letters&gt; -->
<g id="edge6" class="edge">
<title>&lt;letters&gt;&#45;choice&#45;1&#45;&gt;&lt;letters&gt;</title>
<path fill="none" stroke="black" d="M560.25,-339.66C563.37,-351.1 567.73,-367.04 571.95,-382.52"/>
<polygon fill="black" stroke="black" points="568.69,-383.85 574.7,-392.58 575.44,-382.01 568.69,-383.85"/>
<text text-anchor="start" x="569.78" y="-362.09" font-family="Times,serif" font-size="14.00">2</text>
</g>
<!-- &lt;letter&gt; -->
<g id="node6" class="node">
<title>&lt;letter&gt;</title>
<ellipse fill="none" stroke="black" cx="673.78" cy="-213.65" rx="39.79" ry="39.79"/>
<text text-anchor="middle" x="673.78" y="-209.95" font-family="Times,serif" font-size="14.00">&lt;letter&gt;</text>
</g>
<!-- &lt;letters&gt;&#45;choice&#45;1&#45;&gt;&lt;letter&gt; -->
<g id="edge5" class="edge">
<title>&lt;letters&gt;&#45;choice&#45;1&#45;&gt;&lt;letter&gt;</title>
<path fill="none" stroke="black" d="M571.7,-306.91C588.35,-291.86 615.09,-267.7 637.02,-247.88"/>
<polygon fill="black" stroke="black" points="639.48,-250.37 644.55,-241.07 634.78,-245.18 639.48,-250.37"/>
<text text-anchor="start" x="607.78" y="-275.09" font-family="Times,serif" font-size="14.00">1</text>
</g>
<!-- &lt;letters&gt;&#45;choice&#45;2&#45;&gt;&lt;letter&gt; -->
<g id="edge7" class="edge">
<title>&lt;letters&gt;&#45;choice&#45;2&#45;&gt;&lt;letter&gt;</title>
<path fill="none" stroke="black" d="M776.74,-306.91C759.94,-291.86 732.98,-267.7 710.86,-247.88"/>
<polygon fill="black" stroke="black" points="713.05,-245.14 703.27,-241.07 708.38,-250.35 713.05,-245.14"/>
<text text-anchor="start" x="750.78" y="-275.09" font-family="Times,serif" font-size="14.00">1</text>
</g>
<!-- &lt;letter&gt;&#45;choice&#45;1 -->
<g id="node7" class="node">
<title>&lt;letter&gt;&#45;choice&#45;1</title>
<polygon fill="none" stroke="black" points="104.78,-123 0.22,-105 104.78,-87 209.35,-105 104.78,-123"/>
<text text-anchor="middle" x="104.78" y="-101.3" font-family="Times,serif" font-size="14.00">&lt;letter&gt;&#45;choice&#45;1</text>
</g>
<!-- &lt;letter&gt;&#45;&gt;&lt;letter&gt;&#45;choice&#45;1 -->
<g id="edge8" class="edge">
<title>&lt;letter&gt;&#45;&gt;&lt;letter&gt;&#45;choice&#45;1</title>
<path fill="none" stroke="black" d="M634.67,-205.32C536.33,-186.88 278.35,-138.53 162.53,-116.82"/>
<polygon fill="black" stroke="black" points="162.91,-113.33 152.44,-114.93 161.62,-120.21 162.91,-113.33"/>
<text text-anchor="start" x="355.78" y="-144.8" font-family="Times,serif" font-size="14.00">1</text>
</g>
<!-- &lt;letter&gt;&#45;choice&#45;2 -->
<g id="node8" class="node">
<title>&lt;letter&gt;&#45;choice&#45;2</title>
<polygon fill="none" stroke="black" points="332.78,-123 228.22,-105 332.78,-87 437.35,-105 332.78,-123"/>
<text text-anchor="middle" x="332.78" y="-101.3" font-family="Times,serif" font-size="14.00">&lt;letter&gt;&#45;choice&#45;2</text>
</g>
<!-- &lt;letter&gt;&#45;&gt;&lt;letter&gt;&#45;choice&#45;2 -->
<g id="edge9" class="edge">
<title>&lt;letter&gt;&#45;&gt;&lt;letter&gt;&#45;choice&#45;2</title>
<path fill="none" stroke="black" d="M635.99,-200.83C572.73,-181.04 445.71,-141.32 377.89,-120.11"/>
<polygon fill="black" stroke="black" points="378.52,-116.64 367.93,-116.99 376.43,-123.32 378.52,-116.64"/>
<text text-anchor="start" x="483.78" y="-144.8" font-family="Times,serif" font-size="14.00">2</text>
</g>
<!-- &lt;letter&gt;&#45;choice&#45;3 -->
<g id="node9" class="node">
<title>&lt;letter&gt;&#45;choice&#45;3</title>
<polygon fill="none" stroke="black" points="560.78,-123 456.22,-105 560.78,-87 665.35,-105 560.78,-123"/>
<text text-anchor="middle" x="560.78" y="-101.3" font-family="Times,serif" font-size="14.00">&lt;letter&gt;&#45;choice&#45;3</text>
</g>
<!-- &lt;letter&gt;&#45;&gt;&lt;letter&gt;&#45;choice&#45;3 -->
<g id="edge10" class="edge">
<title>&lt;letter&gt;&#45;&gt;&lt;letter&gt;&#45;choice&#45;3</title>
<path fill="none" stroke="black" d="M645.27,-185.74C626.22,-167.76 601.49,-144.42 583.71,-127.64"/>
<polygon fill="black" stroke="black" points="585.76,-124.76 576.08,-120.44 580.95,-129.85 585.76,-124.76"/>
<text text-anchor="start" x="610.78" y="-144.8" font-family="Times,serif" font-size="14.00">3</text>
</g>
<!-- &lt;letter&gt;&#45;choice&#45;4 -->
<g id="node10" class="node">
<title>&lt;letter&gt;&#45;choice&#45;4</title>
<polygon fill="none" stroke="black" points="788.78,-123 684.22,-105 788.78,-87 893.35,-105 788.78,-123"/>
<text text-anchor="middle" x="788.78" y="-101.3" font-family="Times,serif" font-size="14.00">&lt;letter&gt;&#45;choice&#45;4</text>
</g>
<!-- &lt;letter&gt;&#45;&gt;&lt;letter&gt;&#45;choice&#45;4 -->
<g id="edge11" class="edge">
<title>&lt;letter&gt;&#45;&gt;&lt;letter&gt;&#45;choice&#45;4</title>
<path fill="none" stroke="black" d="M702.51,-186.01C721.89,-168.03 747.15,-144.61 765.33,-127.75"/>
<polygon fill="black" stroke="black" points="768.18,-129.88 773.13,-120.51 763.42,-124.75 768.18,-129.88"/>
<text text-anchor="start" x="747.78" y="-144.8" font-family="Times,serif" font-size="14.00">4</text>
</g>
<!-- &lt;letter&gt;&#45;choice&#45;5 -->
<g id="node11" class="node">
<title>&lt;letter&gt;&#45;choice&#45;5</title>
<polygon fill="none" stroke="black" points="1016.78,-123 912.22,-105 1016.78,-87 1121.35,-105 1016.78,-123"/>
<text text-anchor="middle" x="1016.78" y="-101.3" font-family="Times,serif" font-size="14.00">&lt;letter&gt;&#45;choice&#45;5</text>
</g>
<!-- &lt;letter&gt;&#45;&gt;&lt;letter&gt;&#45;choice&#45;5 -->
<g id="edge12" class="edge">
<title>&lt;letter&gt;&#45;&gt;&lt;letter&gt;&#45;choice&#45;5</title>
<path fill="none" stroke="black" d="M711.47,-200.93C775.08,-181.15 903.48,-141.23 971.74,-120.01"/>
<polygon fill="black" stroke="black" points="972.84,-123.33 981.35,-117.02 970.77,-116.64 972.84,-123.33"/>
<text text-anchor="start" x="895.78" y="-144.8" font-family="Times,serif" font-size="14.00">5</text>
</g>
<!-- &lt;letter&gt;&#45;choice&#45;6 -->
<g id="node12" class="node">
<title>&lt;letter&gt;&#45;choice&#45;6</title>
<polygon fill="none" stroke="black" points="1244.78,-123 1140.22,-105 1244.78,-87 1349.35,-105 1244.78,-123"/>
<text text-anchor="middle" x="1244.78" y="-101.3" font-family="Times,serif" font-size="14.00">&lt;letter&gt;&#45;choice&#45;6</text>
</g>
<!-- &lt;letter&gt;&#45;&gt;&lt;letter&gt;&#45;choice&#45;6 -->
<g id="edge13" class="edge">
<title>&lt;letter&gt;&#45;&gt;&lt;letter&gt;&#45;choice&#45;6</title>
<path fill="none" stroke="black" d="M712.58,-205.4C811.02,-187.01 1070.89,-138.48 1187.14,-116.77"/>
<polygon fill="black" stroke="black" points="1188.08,-120.15 1197.27,-114.87 1186.8,-113.27 1188.08,-120.15"/>
<text text-anchor="start" x="1043.78" y="-144.8" font-family="Times,serif" font-size="14.00">6</text>
</g>
<!-- a -->
<g id="node13" class="node">
<title>a</title>
<polygon fill="none" stroke="black" points="131.78,-36 77.78,-36 77.78,0 131.78,0 131.78,-36"/>
<text text-anchor="middle" x="104.78" y="-14.3" font-family="Times,serif" font-size="14.00">a</text>
</g>
<!-- &lt;letter&gt;&#45;choice&#45;1&#45;&gt;a -->
<g id="edge14" class="edge">
<title>&lt;letter&gt;&#45;choice&#45;1&#45;&gt;a</title>
<path fill="none" stroke="black" d="M104.78,-86.8C104.78,-75.16 104.78,-59.55 104.78,-46.24"/>
<polygon fill="black" stroke="black" points="108.28,-46.18 104.78,-36.18 101.28,-46.18 108.28,-46.18"/>
<text text-anchor="start" x="104.78" y="-57.8" font-family="Times,serif" font-size="14.00">1</text>
</g>
<!-- b -->
<g id="node14" class="node">
<title>b</title>
<polygon fill="none" stroke="black" points="359.78,-36 305.78,-36 305.78,0 359.78,0 359.78,-36"/>
<text text-anchor="middle" x="332.78" y="-14.3" font-family="Times,serif" font-size="14.00">b</text>
</g>
<!-- &lt;letter&gt;&#45;choice&#45;2&#45;&gt;b -->
<g id="edge15" class="edge">
<title>&lt;letter&gt;&#45;choice&#45;2&#45;&gt;b</title>
<path fill="none" stroke="black" d="M332.78,-86.8C332.78,-75.16 332.78,-59.55 332.78,-46.24"/>
<polygon fill="black" stroke="black" points="336.28,-46.18 332.78,-36.18 329.28,-46.18 336.28,-46.18"/>
<text text-anchor="start" x="332.78" y="-57.8" font-family="Times,serif" font-size="14.00">1</text>
</g>
<!-- c -->
<g id="node15" class="node">
<title>c</title>
<polygon fill="none" stroke="black" points="587.78,-36 533.78,-36 533.78,0 587.78,0 587.78,-36"/>
<text text-anchor="middle" x="560.78" y="-14.3" font-family="Times,serif" font-size="14.00">c</text>
</g>
<!-- &lt;letter&gt;&#45;choice&#45;3&#45;&gt;c -->
<g id="edge16" class="edge">
<title>&lt;letter&gt;&#45;choice&#45;3&#45;&gt;c</title>
<path fill="none" stroke="black" d="M560.78,-86.8C560.78,-75.16 560.78,-59.55 560.78,-46.24"/>
<polygon fill="black" stroke="black" points="564.28,-46.18 560.78,-36.18 557.28,-46.18 564.28,-46.18"/>
<text text-anchor="start" x="560.78" y="-57.8" font-family="Times,serif" font-size="14.00">1</text>
</g>
<!-- 1 -->
<g id="node16" class="node">
<title>1</title>
<polygon fill="none" stroke="black" points="815.78,-36 761.78,-36 761.78,0 815.78,0 815.78,-36"/>
<text text-anchor="middle" x="788.78" y="-14.3" font-family="Times,serif" font-size="14.00">1</text>
</g>
<!-- &lt;letter&gt;&#45;choice&#45;4&#45;&gt;1 -->
<g id="edge17" class="edge">
<title>&lt;letter&gt;&#45;choice&#45;4&#45;&gt;1</title>
<path fill="none" stroke="black" d="M788.78,-86.8C788.78,-75.16 788.78,-59.55 788.78,-46.24"/>
<polygon fill="black" stroke="black" points="792.28,-46.18 788.78,-36.18 785.28,-46.18 792.28,-46.18"/>
<text text-anchor="start" x="788.78" y="-57.8" font-family="Times,serif" font-size="14.00">1</text>
</g>
<!-- 2 -->
<g id="node17" class="node">
<title>2</title>
<polygon fill="none" stroke="black" points="1043.78,-36 989.78,-36 989.78,0 1043.78,0 1043.78,-36"/>
<text text-anchor="middle" x="1016.78" y="-14.3" font-family="Times,serif" font-size="14.00">2</text>
</g>
<!-- &lt;letter&gt;&#45;choice&#45;5&#45;&gt;2 -->
<g id="edge18" class="edge">
<title>&lt;letter&gt;&#45;choice&#45;5&#45;&gt;2</title>
<path fill="none" stroke="black" d="M1016.78,-86.8C1016.78,-75.16 1016.78,-59.55 1016.78,-46.24"/>
<polygon fill="black" stroke="black" points="1020.28,-46.18 1016.78,-36.18 1013.28,-46.18 1020.28,-46.18"/>
<text text-anchor="start" x="1016.78" y="-57.8" font-family="Times,serif" font-size="14.00">1</text>
</g>
<!-- 3 -->
<g id="node18" class="node">
<title>3</title>
<polygon fill="none" stroke="black" points="1271.78,-36 1217.78,-36 1217.78,0 1271.78,0 1271.78,-36"/>
<text text-anchor="middle" x="1244.78" y="-14.3" font-family="Times,serif" font-size="14.00">3</text>
</g>
<!-- &lt;letter&gt;&#45;choice&#45;6&#45;&gt;3 -->
<g id="edge19" class="edge">
<title>&lt;letter&gt;&#45;choice&#45;6&#45;&gt;3</title>
<path fill="none" stroke="black" d="M1244.78,-86.8C1244.78,-75.16 1244.78,-59.55 1244.78,-46.24"/>
<polygon fill="black" stroke="black" points="1248.28,-46.18 1244.78,-36.18 1241.28,-46.18 1248.28,-46.18"/>
<text text-anchor="start" x="1244.78" y="-57.8" font-family="Times,serif" font-size="14.00">1</text>
</g>
</g>
</svg>
