<?xml version="1.0" encoding="UTF-8" standalone="no"?>
<!DOCTYPE svg PUBLIC "-//W3C//DTD SVG 1.1//EN"
 "http://www.w3.org/Graphics/SVG/1.1/DTD/svg11.dtd">
<!-- Generated by graphviz version 2.47.1 (20210417.1919)
 -->
<!-- Pages: 1 -->
<svg width="1334pt" height="1359pt"
 viewBox="0.00 0.00 1333.89 1359.46" xmlns="http://www.w3.org/2000/svg" xmlns:xlink="http://www.w3.org/1999/xlink">
<g id="graph0" class="graph" transform="scale(1 1) rotate(0) translate(4 1355.46)">
<polygon fill="white" stroke="transparent" points="-4,4 -4,-1355.46 1329.89,-1355.46 1329.89,4 -4,4"/>
<!-- &lt;start&gt; -->
<g id="node1" class="node">
<title>&lt;start&gt;</title>
<ellipse fill="none" stroke="black" cx="450.95" cy="-1315.06" rx="36.29" ry="36.29"/>
<text text-anchor="middle" x="450.95" y="-1311.36" font-family="Times,serif" font-size="14.00">&lt;start&gt;</text>
</g>
<!-- &lt;start&gt;&#45;choice&#45;1 -->
<g id="node2" class="node">
<title>&lt;start&gt;&#45;choice&#45;1</title>
<polygon fill="none" stroke="black" points="450.95,-1227.66 352.75,-1209.66 450.95,-1191.66 549.15,-1209.66 450.95,-1227.66"/>
<text text-anchor="middle" x="450.95" y="-1205.96" font-family="Times,serif" font-size="14.00">&lt;start&gt;&#45;choice&#45;1</text>
</g>
<!-- &lt;start&gt;&#45;&gt;&lt;start&gt;&#45;choice&#45;1 -->
<g id="edge1" class="edge">
<title>&lt;start&gt;&#45;&gt;&lt;start&gt;&#45;choice&#45;1</title>
<path fill="none" stroke="black" d="M450.95,-1278.48C450.95,-1265.19 450.95,-1250.33 450.95,-1237.92"/>
<polygon fill="black" stroke="black" points="454.45,-1237.74 450.95,-1227.74 447.45,-1237.74 454.45,-1237.74"/>
<text text-anchor="start" x="450.95" y="-1249.46" font-family="Times,serif" font-size="14.00">1</text>
</g>
<!-- &lt;csvline&gt; -->
<g id="node3" class="node">
<title>&lt;csvline&gt;</title>
<ellipse fill="none" stroke="black" cx="450.95" cy="-1094.52" rx="46.29" ry="46.29"/>
<text text-anchor="middle" x="450.95" y="-1090.82" font-family="Times,serif" font-size="14.00">&lt;csvline&gt;</text>
</g>
<!-- &lt;start&gt;&#45;choice&#45;1&#45;&gt;&lt;csvline&gt; -->
<g id="edge2" class="edge">
<title>&lt;start&gt;&#45;choice&#45;1&#45;&gt;&lt;csvline&gt;</title>
<path fill="none" stroke="black" d="M450.95,-1191.48C450.95,-1180.53 450.95,-1165.67 450.95,-1150.92"/>
<polygon fill="black" stroke="black" points="454.45,-1150.77 450.95,-1140.77 447.45,-1150.77 454.45,-1150.77"/>
<text text-anchor="start" x="450.95" y="-1162.46" font-family="Times,serif" font-size="14.00">1</text>
</g>
<!-- &lt;csvline&gt;&#45;choice&#45;1 -->
<g id="node4" class="node">
<title>&lt;csvline&gt;&#45;choice&#45;1</title>
<polygon fill="none" stroke="black" points="450.95,-997.37 338.67,-979.37 450.95,-961.37 563.22,-979.37 450.95,-997.37"/>
<text text-anchor="middle" x="450.95" y="-975.67" font-family="Times,serif" font-size="14.00">&lt;csvline&gt;&#45;choice&#45;1</text>
</g>
<!-- &lt;csvline&gt;&#45;&gt;&lt;csvline&gt;&#45;choice&#45;1 -->
<g id="edge3" class="edge">
<title>&lt;csvline&gt;&#45;&gt;&lt;csvline&gt;&#45;choice&#45;1</title>
<path fill="none" stroke="black" d="M450.95,-1048.15C450.95,-1034.5 450.95,-1019.94 450.95,-1007.83"/>
<polygon fill="black" stroke="black" points="454.45,-1007.49 450.95,-997.49 447.45,-1007.49 454.45,-1007.49"/>
<text text-anchor="start" x="450.95" y="-1019.17" font-family="Times,serif" font-size="14.00">1</text>
</g>
<!-- &lt;items&gt; -->
<g id="node5" class="node">
<title>&lt;items&gt;</title>
<ellipse fill="none" stroke="black" cx="450.95" cy="-869.43" rx="40.89" ry="40.89"/>
<text text-anchor="middle" x="450.95" y="-865.73" font-family="Times,serif" font-size="14.00">&lt;items&gt;</text>
</g>
<!-- &lt;csvline&gt;&#45;choice&#45;1&#45;&gt;&lt;items&gt; -->
<g id="edge4" class="edge">
<title>&lt;csvline&gt;&#45;choice&#45;1&#45;&gt;&lt;items&gt;</title>
<path fill="none" stroke="black" d="M450.95,-961.03C450.95,-950.09 450.95,-935.36 450.95,-920.96"/>
<polygon fill="black" stroke="black" points="454.45,-920.59 450.95,-910.59 447.45,-920.59 454.45,-920.59"/>
<text text-anchor="start" x="450.95" y="-932.17" font-family="Times,serif" font-size="14.00">1</text>
</g>
<!-- &lt;items&gt;&#45;choice&#45;1 -->
<g id="node6" class="node">
<title>&lt;items&gt;&#45;choice&#45;1</title>
<polygon fill="none" stroke="black" points="420.95,-777.48 316.38,-759.48 420.95,-741.48 525.51,-759.48 420.95,-777.48"/>
<text text-anchor="middle" x="420.95" y="-755.78" font-family="Times,serif" font-size="14.00">&lt;items&gt;&#45;choice&#45;1</text>
</g>
<!-- &lt;items&gt;&#45;&gt;&lt;items&gt;&#45;choice&#45;1 -->
<g id="edge5" class="edge">
<title>&lt;items&gt;&#45;&gt;&lt;items&gt;&#45;choice&#45;1</title>
<path fill="none" stroke="black" d="M431.92,-833.03C428.74,-825.76 425.85,-818.01 423.95,-810.48 422.09,-803.14 421.15,-795.02 420.71,-787.49"/>
<polygon fill="black" stroke="black" points="424.21,-787.27 420.4,-777.39 417.21,-787.49 424.21,-787.27"/>
<text text-anchor="start" x="423.95" y="-799.28" font-family="Times,serif" font-size="14.00">1</text>
</g>
<!-- &lt;items&gt;&#45;choice&#45;2 -->
<g id="node7" class="node">
<title>&lt;items&gt;&#45;choice&#45;2</title>
<polygon fill="none" stroke="black" points="648.95,-777.48 544.38,-759.48 648.95,-741.48 753.51,-759.48 648.95,-777.48"/>
<text text-anchor="middle" x="648.95" y="-755.78" font-family="Times,serif" font-size="14.00">&lt;items&gt;&#45;choice&#45;2</text>
</g>
<!-- &lt;items&gt;&#45;&gt;&lt;items&gt;&#45;choice&#45;2 -->
<g id="edge6" class="edge">
<title>&lt;items&gt;&#45;&gt;&lt;items&gt;&#45;choice&#45;2</title>
<path fill="none" stroke="black" d="M486.8,-848.88C523.63,-828.8 580.47,-797.81 616.14,-778.36"/>
<polygon fill="black" stroke="black" points="618.06,-781.3 625.17,-773.44 614.71,-775.16 618.06,-781.3"/>
<text text-anchor="start" x="578.95" y="-799.28" font-family="Times,serif" font-size="14.00">2</text>
</g>
<!-- &lt;items&gt;&#45;choice&#45;1&#45;&gt;&lt;items&gt; -->
<g id="edge9" class="edge">
<title>&lt;items&gt;&#45;choice&#45;1&#45;&gt;&lt;items&gt;</title>
<path fill="none" stroke="black" d="M425.52,-776.94C428.71,-788.43 433.15,-804.4 437.43,-819.78"/>
<polygon fill="black" stroke="black" points="434.15,-821.06 440.2,-829.76 440.89,-819.19 434.15,-821.06"/>
<text text-anchor="start" x="434.95" y="-799.28" font-family="Times,serif" font-size="14.00">3</text>
</g>
<!-- &lt;item&gt; -->
<g id="node8" class="node">
<title>&lt;item&gt;</title>
<ellipse fill="none" stroke="black" cx="575.95" cy="-652.78" rx="37.89" ry="37.89"/>
<text text-anchor="middle" x="575.95" y="-649.08" font-family="Times,serif" font-size="14.00">&lt;item&gt;</text>
</g>
<!-- &lt;items&gt;&#45;choice&#45;1&#45;&gt;&lt;item&gt; -->
<g id="edge7" class="edge">
<title>&lt;items&gt;&#45;choice&#45;1&#45;&gt;&lt;item&gt;</title>
<path fill="none" stroke="black" d="M441.21,-744.79C465.26,-728.55 505.92,-701.08 536.3,-680.56"/>
<polygon fill="black" stroke="black" points="538.64,-683.2 544.97,-674.71 534.72,-677.4 538.64,-683.2"/>
<text text-anchor="start" x="492.95" y="-712.28" font-family="Times,serif" font-size="14.00">1</text>
</g>
<!-- , -->
<g id="node9" class="node">
<title>,</title>
<polygon fill="none" stroke="black" points="447.95,-670.78 393.95,-670.78 393.95,-634.78 447.95,-634.78 447.95,-670.78"/>
<text text-anchor="middle" x="420.95" y="-649.08" font-family="Times,serif" font-size="14.00">,</text>
</g>
<!-- &lt;items&gt;&#45;choice&#45;1&#45;&gt;, -->
<g id="edge8" class="edge">
<title>&lt;items&gt;&#45;choice&#45;1&#45;&gt;,</title>
<path fill="none" stroke="black" d="M420.95,-741.19C420.95,-724.9 420.95,-700.22 420.95,-681.24"/>
<polygon fill="black" stroke="black" points="424.45,-681.1 420.95,-671.1 417.45,-681.1 424.45,-681.1"/>
<text text-anchor="start" x="420.95" y="-712.28" font-family="Times,serif" font-size="14.00">2</text>
</g>
<!-- &lt;items&gt;&#45;choice&#45;2&#45;&gt;&lt;item&gt; -->
<g id="edge10" class="edge">
<title>&lt;items&gt;&#45;choice&#45;2&#45;&gt;&lt;item&gt;</title>
<path fill="none" stroke="black" d="M638.17,-743.03C628.9,-729.73 615.13,-709.98 602.89,-692.43"/>
<polygon fill="black" stroke="black" points="605.63,-690.23 597.04,-684.03 599.88,-694.23 605.63,-690.23"/>
<text text-anchor="start" x="622.95" y="-712.28" font-family="Times,serif" font-size="14.00">1</text>
</g>
<!-- &lt;item&gt;&#45;choice&#45;1 -->
<g id="node10" class="node">
<title>&lt;item&gt;&#45;choice&#45;1</title>
<polygon fill="none" stroke="black" points="575.95,-564.09 475.57,-546.09 575.95,-528.09 676.32,-546.09 575.95,-564.09"/>
<text text-anchor="middle" x="575.95" y="-542.39" font-family="Times,serif" font-size="14.00">&lt;item&gt;&#45;choice&#45;1</text>
</g>
<!-- &lt;item&gt;&#45;&gt;&lt;item&gt;&#45;choice&#45;1 -->
<g id="edge11" class="edge">
<title>&lt;item&gt;&#45;&gt;&lt;item&gt;&#45;choice&#45;1</title>
<path fill="none" stroke="black" d="M575.95,-614.87C575.95,-601.57 575.95,-586.82 575.95,-574.48"/>
<polygon fill="black" stroke="black" points="579.45,-574.35 575.95,-564.35 572.45,-574.35 579.45,-574.35"/>
<text text-anchor="start" x="575.95" y="-585.89" font-family="Times,serif" font-size="14.00">1</text>
</g>
<!-- &lt;letters&gt; -->
<g id="node11" class="node">
<title>&lt;letters&gt;</title>
<ellipse fill="none" stroke="black" cx="575.95" cy="-434.19" rx="42.79" ry="42.79"/>
<text text-anchor="middle" x="575.95" y="-430.49" font-family="Times,serif" font-size="14.00">&lt;letters&gt;</text>
</g>
<!-- &lt;item&gt;&#45;choice&#45;1&#45;&gt;&lt;letters&gt; -->
<g id="edge12" class="edge">
<title>&lt;item&gt;&#45;choice&#45;1&#45;&gt;&lt;letters&gt;</title>
<path fill="none" stroke="black" d="M575.95,-527.91C575.95,-516.93 575.95,-502.03 575.95,-487.4"/>
<polygon fill="black" stroke="black" points="579.45,-487.36 575.95,-477.36 572.45,-487.36 579.45,-487.36"/>
<text text-anchor="start" x="575.95" y="-498.89" font-family="Times,serif" font-size="14.00">1</text>
</g>
<!-- &lt;letters&gt;&#45;choice&#45;1 -->
<g id="node12" class="node">
<title>&lt;letters&gt;&#45;choice&#45;1</title>
<polygon fill="none" stroke="black" points="545.95,-340.29 438.36,-322.29 545.95,-304.29 653.53,-322.29 545.95,-340.29"/>
<text text-anchor="middle" x="545.95" y="-318.59" font-family="Times,serif" font-size="14.00">&lt;letters&gt;&#45;choice&#45;1</text>
</g>
<!-- &lt;letters&gt;&#45;&gt;&lt;letters&gt;&#45;choice&#45;1 -->
<g id="edge13" class="edge">
<title>&lt;letters&gt;&#45;&gt;&lt;letters&gt;&#45;choice&#45;1</title>
<path fill="none" stroke="black" d="M556.52,-395.59C553.5,-388.35 550.77,-380.71 548.95,-373.29 547.16,-366.06 546.24,-358.07 545.79,-350.64"/>
<polygon fill="black" stroke="black" points="549.29,-350.52 545.45,-340.65 542.3,-350.76 549.29,-350.52"/>
<text text-anchor="start" x="548.95" y="-362.09" font-family="Times,serif" font-size="14.00">1</text>
</g>
<!-- &lt;letters&gt;&#45;choice&#45;2 -->
<g id="node13" class="node">
<title>&lt;letters&gt;&#45;choice&#45;2</title>
<polygon fill="none" stroke="black" points="778.95,-340.29 671.36,-322.29 778.95,-304.29 886.53,-322.29 778.95,-340.29"/>
<text text-anchor="middle" x="778.95" y="-318.59" font-family="Times,serif" font-size="14.00">&lt;letters&gt;&#45;choice&#45;2</text>
</g>
<!-- &lt;letters&gt;&#45;&gt;&lt;letters&gt;&#45;choice&#45;2 -->
<g id="edge14" class="edge">
<title>&lt;letters&gt;&#45;&gt;&lt;letters&gt;&#45;choice&#45;2</title>
<path fill="none" stroke="black" d="M613.65,-412.78C651.54,-392.26 709.38,-360.95 745.63,-341.33"/>
<polygon fill="black" stroke="black" points="747.68,-344.2 754.81,-336.36 744.34,-338.04 747.68,-344.2"/>
<text text-anchor="start" x="712.95" y="-362.09" font-family="Times,serif" font-size="14.00">2</text>
</g>
<!-- &lt;letters&gt;&#45;choice&#45;1&#45;&gt;&lt;letters&gt; -->
<g id="edge16" class="edge">
<title>&lt;letters&gt;&#45;choice&#45;1&#45;&gt;&lt;letters&gt;</title>
<path fill="none" stroke="black" d="M550.41,-339.66C553.54,-351.1 557.89,-367.04 562.11,-382.52"/>
<polygon fill="black" stroke="black" points="558.85,-383.85 564.86,-392.58 565.6,-382.01 558.85,-383.85"/>
<text text-anchor="start" x="558.95" y="-362.09" font-family="Times,serif" font-size="14.00">2</text>
</g>
<!-- &lt;letter&gt; -->
<g id="node14" class="node">
<title>&lt;letter&gt;</title>
<ellipse fill="none" stroke="black" cx="661.95" cy="-213.65" rx="39.79" ry="39.79"/>
<text text-anchor="middle" x="661.95" y="-209.95" font-family="Times,serif" font-size="14.00">&lt;letter&gt;</text>
</g>
<!-- &lt;letters&gt;&#45;choice&#45;1&#45;&gt;&lt;letter&gt; -->
<g id="edge15" class="edge">
<title>&lt;letters&gt;&#45;choice&#45;1&#45;&gt;&lt;letter&gt;</title>
<path fill="none" stroke="black" d="M561.59,-306.91C577.96,-291.86 604.24,-267.7 625.8,-247.88"/>
<polygon fill="black" stroke="black" points="628.21,-250.41 633.21,-241.07 623.48,-245.26 628.21,-250.41"/>
<text text-anchor="start" x="596.95" y="-275.09" font-family="Times,serif" font-size="14.00">1</text>
</g>
<!-- &lt;letters&gt;&#45;choice&#45;2&#45;&gt;&lt;letter&gt; -->
<g id="edge17" class="edge">
<title>&lt;letters&gt;&#45;choice&#45;2&#45;&gt;&lt;letter&gt;</title>
<path fill="none" stroke="black" d="M763.17,-306.91C746.65,-291.86 720.15,-267.7 698.4,-247.88"/>
<polygon fill="black" stroke="black" points="700.68,-245.22 690.93,-241.07 695.97,-250.39 700.68,-245.22"/>
<text text-anchor="start" x="736.95" y="-275.09" font-family="Times,serif" font-size="14.00">1</text>
</g>
<!-- &lt;letter&gt;&#45;choice&#45;1 -->
<g id="node15" class="node">
<title>&lt;letter&gt;&#45;choice&#45;1</title>
<polygon fill="none" stroke="black" points="102.95,-123 0.05,-105 102.95,-87 205.84,-105 102.95,-123"/>
<text text-anchor="middle" x="102.95" y="-101.3" font-family="Times,serif" font-size="14.00">&lt;letter&gt;&#45;choice&#45;1</text>
</g>
<!-- &lt;letter&gt;&#45;&gt;&lt;letter&gt;&#45;choice&#45;1 -->
<g id="edge18" class="edge">
<title>&lt;letter&gt;&#45;&gt;&lt;letter&gt;&#45;choice&#45;1</title>
<path fill="none" stroke="black" d="M623.08,-205.23C526.1,-186.73 273.11,-138.46 159.55,-116.8"/>
<polygon fill="black" stroke="black" points="160.14,-113.35 149.66,-114.91 158.83,-120.22 160.14,-113.35"/>
<text text-anchor="start" x="349.95" y="-144.8" font-family="Times,serif" font-size="14.00">1</text>
</g>
<!-- &lt;letter&gt;&#45;choice&#45;2 -->
<g id="node16" class="node">
<title>&lt;letter&gt;&#45;choice&#45;2</title>
<polygon fill="none" stroke="black" points="326.95,-123 224.05,-105 326.95,-87 429.84,-105 326.95,-123"/>
<text text-anchor="middle" x="326.95" y="-101.3" font-family="Times,serif" font-size="14.00">&lt;letter&gt;&#45;choice&#45;2</text>
</g>
<!-- &lt;letter&gt;&#45;&gt;&lt;letter&gt;&#45;choice&#45;2 -->
<g id="edge19" class="edge">
<title>&lt;letter&gt;&#45;&gt;&lt;letter&gt;&#45;choice&#45;2</title>
<path fill="none" stroke="black" d="M624.17,-200.62C561.83,-180.78 437.73,-141.27 371.32,-120.13"/>
<polygon fill="black" stroke="black" points="372.15,-116.72 361.56,-117.02 370.03,-123.39 372.15,-116.72"/>
<text text-anchor="start" x="474.95" y="-144.8" font-family="Times,serif" font-size="14.00">2</text>
</g>
<!-- &lt;letter&gt;&#45;choice&#45;3 -->
<g id="node17" class="node">
<title>&lt;letter&gt;&#45;choice&#45;3</title>
<polygon fill="none" stroke="black" points="550.95,-123 448.05,-105 550.95,-87 653.84,-105 550.95,-123"/>
<text text-anchor="middle" x="550.95" y="-101.3" font-family="Times,serif" font-size="14.00">&lt;letter&gt;&#45;choice&#45;3</text>
</g>
<!-- &lt;letter&gt;&#45;&gt;&lt;letter&gt;&#45;choice&#45;3 -->
<g id="edge20" class="edge">
<title>&lt;letter&gt;&#45;&gt;&lt;letter&gt;&#45;choice&#45;3</title>
<path fill="none" stroke="black" d="M633.65,-185.46C615.04,-167.58 591.02,-144.5 573.67,-127.83"/>
<polygon fill="black" stroke="black" points="575.84,-125.06 566.2,-120.66 570.99,-130.11 575.84,-125.06"/>
<text text-anchor="start" x="598.95" y="-144.8" font-family="Times,serif" font-size="14.00">3</text>
</g>
<!-- &lt;letter&gt;&#45;choice&#45;4 -->
<g id="node18" class="node">
<title>&lt;letter&gt;&#45;choice&#45;4</title>
<polygon fill="none" stroke="black" points="774.95,-123 672.05,-105 774.95,-87 877.84,-105 774.95,-123"/>
<text text-anchor="middle" x="774.95" y="-101.3" font-family="Times,serif" font-size="14.00">&lt;letter&gt;&#45;choice&#45;4</text>
</g>
<!-- &lt;letter&gt;&#45;&gt;&lt;letter&gt;&#45;choice&#45;4 -->
<g id="edge21" class="edge">
<title>&lt;letter&gt;&#45;&gt;&lt;letter&gt;&#45;choice&#45;4</title>
<path fill="none" stroke="black" d="M690.46,-185.74C709.51,-167.76 734.24,-144.42 752.02,-127.64"/>
<polygon fill="black" stroke="black" points="754.78,-129.85 759.65,-120.44 749.97,-124.76 754.78,-129.85"/>
<text text-anchor="start" x="734.95" y="-144.8" font-family="Times,serif" font-size="14.00">4</text>
</g>
<!-- &lt;letter&gt;&#45;choice&#45;5 -->
<g id="node19" class="node">
<title>&lt;letter&gt;&#45;choice&#45;5</title>
<polygon fill="none" stroke="black" points="998.95,-123 896.05,-105 998.95,-87 1101.84,-105 998.95,-123"/>
<text text-anchor="middle" x="998.95" y="-101.3" font-family="Times,serif" font-size="14.00">&lt;letter&gt;&#45;choice&#45;5</text>
</g>
<!-- &lt;letter&gt;&#45;&gt;&lt;letter&gt;&#45;choice&#45;5 -->
<g id="edge22" class="edge">
<title>&lt;letter&gt;&#45;&gt;&lt;letter&gt;&#45;choice&#45;5</title>
<path fill="none" stroke="black" d="M699.62,-200.72C762.27,-180.9 887.59,-141.24 954.47,-120.07"/>
<polygon fill="black" stroke="black" points="955.82,-123.32 964.29,-116.97 953.7,-116.65 955.82,-123.32"/>
<text text-anchor="start" x="879.95" y="-144.8" font-family="Times,serif" font-size="14.00">5</text>
</g>
<!-- &lt;letter&gt;&#45;choice&#45;6 -->
<g id="node20" class="node">
<title>&lt;letter&gt;&#45;choice&#45;6</title>
<polygon fill="none" stroke="black" points="1222.95,-123 1120.05,-105 1222.95,-87 1325.84,-105 1222.95,-123"/>
<text text-anchor="middle" x="1222.95" y="-101.3" font-family="Times,serif" font-size="14.00">&lt;letter&gt;&#45;choice&#45;6</text>
</g>
<!-- &lt;letter&gt;&#45;&gt;&lt;letter&gt;&#45;choice&#45;6 -->
<g id="edge23" class="edge">
<title>&lt;letter&gt;&#45;&gt;&lt;letter&gt;&#45;choice&#45;6</title>
<path fill="none" stroke="black" d="M700.95,-205.23C798.27,-186.73 1052.18,-138.46 1166.14,-116.8"/>
<polygon fill="black" stroke="black" points="1166.89,-120.22 1176.06,-114.91 1165.59,-113.34 1166.89,-120.22"/>
<text text-anchor="start" x="1024.95" y="-144.8" font-family="Times,serif" font-size="14.00">6</text>
</g>
<!-- a -->
<g id="node21" class="node">
<title>a</title>
<polygon fill="none" stroke="black" points="129.95,-36 75.95,-36 75.95,0 129.95,0 129.95,-36"/>
<text text-anchor="middle" x="102.95" y="-14.3" font-family="Times,serif" font-size="14.00">a</text>
</g>
<!-- &lt;letter&gt;&#45;choice&#45;1&#45;&gt;a -->
<g id="edge24" class="edge">
<title>&lt;letter&gt;&#45;choice&#45;1&#45;&gt;a</title>
<path fill="none" stroke="black" d="M102.95,-86.8C102.95,-75.16 102.95,-59.55 102.95,-46.24"/>
<polygon fill="black" stroke="black" points="106.45,-46.18 102.95,-36.18 99.45,-46.18 106.45,-46.18"/>
<text text-anchor="start" x="102.95" y="-57.8" font-family="Times,serif" font-size="14.00">1</text>
</g>
<!-- b -->
<g id="node22" class="node">
<title>b</title>
<polygon fill="none" stroke="black" points="353.95,-36 299.95,-36 299.95,0 353.95,0 353.95,-36"/>
<text text-anchor="middle" x="326.95" y="-14.3" font-family="Times,serif" font-size="14.00">b</text>
</g>
<!-- &lt;letter&gt;&#45;choice&#45;2&#45;&gt;b -->
<g id="edge25" class="edge">
<title>&lt;letter&gt;&#45;choice&#45;2&#45;&gt;b</title>
<path fill="none" stroke="black" d="M326.95,-86.8C326.95,-75.16 326.95,-59.55 326.95,-46.24"/>
<polygon fill="black" stroke="black" points="330.45,-46.18 326.95,-36.18 323.45,-46.18 330.45,-46.18"/>
<text text-anchor="start" x="326.95" y="-57.8" font-family="Times,serif" font-size="14.00">1</text>
</g>
<!-- c -->
<g id="node23" class="node">
<title>c</title>
<polygon fill="none" stroke="black" points="577.95,-36 523.95,-36 523.95,0 577.95,0 577.95,-36"/>
<text text-anchor="middle" x="550.95" y="-14.3" font-family="Times,serif" font-size="14.00">c</text>
</g>
<!-- &lt;letter&gt;&#45;choice&#45;3&#45;&gt;c -->
<g id="edge26" class="edge">
<title>&lt;letter&gt;&#45;choice&#45;3&#45;&gt;c</title>
<path fill="none" stroke="black" d="M550.95,-86.8C550.95,-75.16 550.95,-59.55 550.95,-46.24"/>
<polygon fill="black" stroke="black" points="554.45,-46.18 550.95,-36.18 547.45,-46.18 554.45,-46.18"/>
<text text-anchor="start" x="550.95" y="-57.8" font-family="Times,serif" font-size="14.00">1</text>
</g>
<!-- 1 -->
<g id="node24" class="node">
<title>1</title>
<polygon fill="none" stroke="black" points="801.95,-36 747.95,-36 747.95,0 801.95,0 801.95,-36"/>
<text text-anchor="middle" x="774.95" y="-14.3" font-family="Times,serif" font-size="14.00">1</text>
</g>
<!-- &lt;letter&gt;&#45;choice&#45;4&#45;&gt;1 -->
<g id="edge27" class="edge">
<title>&lt;letter&gt;&#45;choice&#45;4&#45;&gt;1</title>
<path fill="none" stroke="black" d="M774.95,-86.8C774.95,-75.16 774.95,-59.55 774.95,-46.24"/>
<polygon fill="black" stroke="black" points="778.45,-46.18 774.95,-36.18 771.45,-46.18 778.45,-46.18"/>
<text text-anchor="start" x="774.95" y="-57.8" font-family="Times,serif" font-size="14.00">1</text>
</g>
<!-- 2 -->
<g id="node25" class="node">
<title>2</title>
<polygon fill="none" stroke="black" points="1025.95,-36 971.95,-36 971.95,0 1025.95,0 1025.95,-36"/>
<text text-anchor="middle" x="998.95" y="-14.3" font-family="Times,serif" font-size="14.00">2</text>
</g>
<!-- &lt;letter&gt;&#45;choice&#45;5&#45;&gt;2 -->
<g id="edge28" class="edge">
<title>&lt;letter&gt;&#45;choice&#45;5&#45;&gt;2</title>
<path fill="none" stroke="black" d="M998.95,-86.8C998.95,-75.16 998.95,-59.55 998.95,-46.24"/>
<polygon fill="black" stroke="black" points="1002.45,-46.18 998.95,-36.18 995.45,-46.18 1002.45,-46.18"/>
<text text-anchor="start" x="998.95" y="-57.8" font-family="Times,serif" font-size="14.00">1</text>
</g>
<!-- 3 -->
<g id="node26" class="node">
<title>3</title>
<polygon fill="none" stroke="black" points="1249.95,-36 1195.95,-36 1195.95,0 1249.95,0 1249.95,-36"/>
<text text-anchor="middle" x="1222.95" y="-14.3" font-family="Times,serif" font-size="14.00">3</text>
</g>
<!-- &lt;letter&gt;&#45;choice&#45;6&#45;&gt;3 -->
<g id="edge29" class="edge">
<title>&lt;letter&gt;&#45;choice&#45;6&#45;&gt;3</title>
<path fill="none" stroke="black" d="M1222.95,-86.8C1222.95,-75.16 1222.95,-59.55 1222.95,-46.24"/>
<polygon fill="black" stroke="black" points="1226.45,-46.18 1222.95,-36.18 1219.45,-46.18 1226.45,-46.18"/>
<text text-anchor="start" x="1222.95" y="-57.8" font-family="Times,serif" font-size="14.00">1</text>
</g>
</g>
</svg>
